<?xml version="1.0" encoding="utf-8"?>
<!-- Generator: Adobe Illustrator 25.4.1, SVG Export Plug-In . SVG Version: 6.00 Build 0)  -->
<svg version="1.1" id="图层_1" xmlns="http://www.w3.org/2000/svg" xmlns:xlink="http://www.w3.org/1999/xlink" x="0px" y="0px"
	 viewBox="0 0 156.1 138.2" style="enable-background:new 0 0 156.1 138.2;" xml:space="preserve">
<style type="text/css">
	.st0{fill:#444444;}
</style>
<path class="st0" d="M86.9,78.9c0,4.9-3.9,8.8-8.8,8.8s-8.8-3.9-8.8-8.8V49.6c0-4.9,3.9-8.8,8.8-8.8s8.8,3.9,8.8,8.8V78.9z
	 M86.9,104.7c0,4.9-3.9,8.8-8.8,8.8s-8.8-3.9-8.8-8.8v-0.2c0-4.9,3.9-8.8,8.8-8.8s8.8,3.9,8.8,8.8V104.7z M17.6,117.5
	c0,1.6,1.3,2.9,2.9,2.9l115.1,0.1c1.6,0,2.9-1.3,2.9-2.9c0-0.5-0.1-1-0.4-1.5L80.6,19c-0.8-1.4-2.6-1.9-4-1c-0.4,0.3-0.8,0.6-1,1
	L18,116C17.7,116.5,17.6,117,17.6,117.5L17.6,117.5z M2.9,107.1l57.6-97c5.8-9.7,18.4-13,28.1-7.2c3,1.8,5.4,4.2,7.2,7.2l57.6,97.1
	c5.8,9.7,2.6,22.3-7.2,28.1c-3.2,1.9-6.8,2.9-10.5,2.9L20.5,138C9.2,138,0,128.8,0,117.5C0,113.8,1,110.2,2.9,107.1L2.9,107.1z"/>
</svg>
