<?xml version="1.0" standalone="no"?><!DOCTYPE svg PUBLIC "-//W3C//DTD SVG 1.1//EN" "http://www.w3.org/Graphics/SVG/1.1/DTD/svg11.dtd"><svg t="1736747975896" class="icon" viewBox="0 0 1024 1024" version="1.1" xmlns="http://www.w3.org/2000/svg" p-id="4257" xmlns:xlink="http://www.w3.org/1999/xlink" width="200" height="200"><path d="M769.856 348.928H261.248a27.84 27.84 0 0 0-28.48 27.584v337.152a27.712 27.712 0 0 0 28.48 27.456h508.608a26.496 26.496 0 0 0 27.072-27.456V376.512a26.688 26.688 0 0 0-27.072-27.584zM295.872 473.536l143.36-27.456 10.816 53.76-141.888 27.456zM516.8 637.44c-44.032 48-90.24-15.168-90.24-15.168l23.488-15.168s31.424 56.704 66.432-18.432c33.6 72.96 70.784 19.2 70.784 19.2l21.312 13.696s-39.68 63.872-91.712 15.872z m212.672-110.144L587.2 499.84l11.2-53.824 142.976 27.456z" fill="#53D4F4" p-id="4258"></path><path d="M512 0a512 512 0 1 0 512 512 512 512 0 0 0-512-512z m269.632 809.408a462.4 462.4 0 0 0-47.872 0s-2.624 41.088-37.696 41.792a39.552 39.552 0 0 1-41.792-39.552c-21.44 0-279.552 1.152-279.552 1.152s-4.544 38.08-39.552 38.08a39.68 39.68 0 0 1-39.552-38.08c-22.976 0-53.888-0.768-53.888-0.768a123.52 123.52 0 0 1-87.808-117.184c1.152-100.992 0-300.8 0-300.8a117.376 117.376 0 0 1 85.504-119.808 5388.8 5388.8 0 0 1 161.984-1.536l-65.92-64s-10.176-12.8 7.168-27.136 18.432-8.512 24.512-4.352 98.304 95.104 98.304 95.104h-12.416c35.392 0 71.936 0.576 107.008 0.576 13.568-13.568 90.816-89.216 96-92.928s7.168-10.112 24.512 4.16 7.168 27.136 7.168 27.136l-64.448 62.144c88.512 0.768 156.736 1.152 156.736 1.152a120.896 120.896 0 0 1 89.6 119.424c-1.152 100.224 0.384 301.76 0.384 301.76s-4.864 97.92-88.512 113.408z" fill="#53D4F4" p-id="4259"></path></svg>